<svg version="1.0" xmlns="http://www.w3.org/2000/svg"
 width="256.000000pt" height="256.000000pt" viewBox="0 0 256.000000 256.000000"
 preserveAspectRatio="xMidYMid meet">
<g transform="translate(0.000000,256.000000) scale(0.100000,-0.100000)"
fill="#000000" stroke="none">
<path d="M1125 2545 c-220 -48 -417 -244 -464 -463 -16 -76 -14 -224 5 -296
53 -206 242 -393 445 -441 137 -32 304 -14 427 47 83 41 205 156 255 239 61
104 82 184 81 319 -1 127 -18 196 -77 300 -47 85 -169 200 -258 244 -126 62
-278 81 -414 51z"/>
<path d="M630 1301 c-136 -44 -228 -123 -297 -257 -99 -189 -149 -524 -108
-718 34 -160 154 -276 324 -312 98 -20 1365 -20 1464 1 153 32 270 138 313
284 32 111 13 414 -37 586 -47 158 -151 310 -255 371 -63 37 -159 64 -229 64
-55 0 -66 -4 -146 -55 -169 -108 -277 -142 -416 -133 -92 6 -193 38 -269 85
-178 109 -164 103 -228 102 -34 0 -86 -8 -116 -18z"/>
</g>
</svg>